<svg xmlns="http://www.w3.org/2000/svg" xmlns:xlink="http://www.w3.org/1999/xlink" width="200" zoomAndPan="magnify" viewBox="0 0 150 44.999999" height="60" preserveAspectRatio="xMidYMid meet" version="1.0"><defs><g/></defs><g fill="#ff5e14" fill-opacity="1"><g transform="translate(0.708766, 31.737164)"><g><path d="M 5.875 -2.84375 C 6.601562 -2.84375 7.117188 -2.910156 7.421875 -3.046875 C 7.722656 -3.191406 7.875 -3.472656 7.875 -3.890625 C 7.875 -4.203125 7.675781 -4.476562 7.28125 -4.71875 C 6.894531 -4.957031 6.304688 -5.226562 5.515625 -5.53125 C 4.890625 -5.757812 4.320312 -6 3.8125 -6.25 C 3.3125 -6.5 2.882812 -6.796875 2.53125 -7.140625 C 2.175781 -7.484375 1.898438 -7.894531 1.703125 -8.375 C 1.503906 -8.851562 1.40625 -9.429688 1.40625 -10.109375 C 1.40625 -11.421875 1.894531 -12.457031 2.875 -13.21875 C 3.851562 -13.988281 5.191406 -14.375 6.890625 -14.375 C 7.742188 -14.375 8.5625 -14.296875 9.34375 -14.140625 C 10.125 -13.992188 10.742188 -13.832031 11.203125 -13.65625 L 10.515625 -10.5625 C 10.046875 -10.71875 9.539062 -10.859375 9 -10.984375 C 8.46875 -11.109375 7.863281 -11.171875 7.1875 -11.171875 C 5.945312 -11.171875 5.328125 -10.828125 5.328125 -10.140625 C 5.328125 -9.984375 5.351562 -9.84375 5.40625 -9.71875 C 5.457031 -9.59375 5.5625 -9.472656 5.71875 -9.359375 C 5.875 -9.242188 6.085938 -9.117188 6.359375 -8.984375 C 6.640625 -8.847656 6.992188 -8.703125 7.421875 -8.546875 C 8.296875 -8.222656 9.015625 -7.90625 9.578125 -7.59375 C 10.148438 -7.28125 10.597656 -6.941406 10.921875 -6.578125 C 11.253906 -6.222656 11.484375 -5.820312 11.609375 -5.375 C 11.742188 -4.925781 11.8125 -4.410156 11.8125 -3.828125 C 11.8125 -2.441406 11.289062 -1.394531 10.25 -0.6875 C 9.21875 0.0195312 7.753906 0.375 5.859375 0.375 C 4.609375 0.375 3.570312 0.265625 2.75 0.046875 C 1.925781 -0.160156 1.351562 -0.335938 1.03125 -0.484375 L 1.703125 -3.703125 C 2.378906 -3.429688 3.070312 -3.21875 3.78125 -3.0625 C 4.488281 -2.914062 5.1875 -2.84375 5.875 -2.84375 Z M 5.875 -2.84375 "/></g></g></g><g fill="#ff5e14" fill-opacity="1"><g transform="translate(13.610547, 31.737164)"><g><path d="M 13.8125 -0.484375 C 13.132812 -0.285156 12.265625 -0.101562 11.203125 0.0625 C 10.140625 0.226562 9.019531 0.3125 7.84375 0.3125 C 6.65625 0.3125 5.664062 0.15625 4.875 -0.15625 C 4.09375 -0.476562 3.46875 -0.925781 3 -1.5 C 2.539062 -2.082031 2.210938 -2.769531 2.015625 -3.5625 C 1.828125 -4.363281 1.734375 -5.242188 1.734375 -6.203125 L 1.734375 -14 L 5.6875 -14 L 5.6875 -6.671875 C 5.6875 -5.398438 5.851562 -4.476562 6.1875 -3.90625 C 6.53125 -3.34375 7.164062 -3.0625 8.09375 -3.0625 C 8.375 -3.0625 8.671875 -3.070312 8.984375 -3.09375 C 9.304688 -3.125 9.59375 -3.15625 9.84375 -3.1875 L 9.84375 -14 L 13.8125 -14 Z M 13.8125 -0.484375 "/></g></g></g><g fill="#ff5e14" fill-opacity="1"><g transform="translate(29.278892, 31.737164)"><g><path d="M 5.875 -2.84375 C 6.601562 -2.84375 7.117188 -2.910156 7.421875 -3.046875 C 7.722656 -3.191406 7.875 -3.472656 7.875 -3.890625 C 7.875 -4.203125 7.675781 -4.476562 7.28125 -4.71875 C 6.894531 -4.957031 6.304688 -5.226562 5.515625 -5.53125 C 4.890625 -5.757812 4.320312 -6 3.8125 -6.25 C 3.3125 -6.5 2.882812 -6.796875 2.53125 -7.140625 C 2.175781 -7.484375 1.898438 -7.894531 1.703125 -8.375 C 1.503906 -8.851562 1.40625 -9.429688 1.40625 -10.109375 C 1.40625 -11.421875 1.894531 -12.457031 2.875 -13.21875 C 3.851562 -13.988281 5.191406 -14.375 6.890625 -14.375 C 7.742188 -14.375 8.5625 -14.296875 9.34375 -14.140625 C 10.125 -13.992188 10.742188 -13.832031 11.203125 -13.65625 L 10.515625 -10.5625 C 10.046875 -10.71875 9.539062 -10.859375 9 -10.984375 C 8.46875 -11.109375 7.863281 -11.171875 7.1875 -11.171875 C 5.945312 -11.171875 5.328125 -10.828125 5.328125 -10.140625 C 5.328125 -9.984375 5.351562 -9.84375 5.40625 -9.71875 C 5.457031 -9.59375 5.5625 -9.472656 5.71875 -9.359375 C 5.875 -9.242188 6.085938 -9.117188 6.359375 -8.984375 C 6.640625 -8.847656 6.992188 -8.703125 7.421875 -8.546875 C 8.296875 -8.222656 9.015625 -7.90625 9.578125 -7.59375 C 10.148438 -7.28125 10.597656 -6.941406 10.921875 -6.578125 C 11.253906 -6.222656 11.484375 -5.820312 11.609375 -5.375 C 11.742188 -4.925781 11.8125 -4.410156 11.8125 -3.828125 C 11.8125 -2.441406 11.289062 -1.394531 10.25 -0.6875 C 9.21875 0.0195312 7.753906 0.375 5.859375 0.375 C 4.609375 0.375 3.570312 0.265625 2.75 0.046875 C 1.925781 -0.160156 1.351562 -0.335938 1.03125 -0.484375 L 1.703125 -3.703125 C 2.378906 -3.429688 3.070312 -3.21875 3.78125 -3.0625 C 4.488281 -2.914062 5.1875 -2.84375 5.875 -2.84375 Z M 5.875 -2.84375 "/></g></g></g><g fill="#ff5e14" fill-opacity="1"><g transform="translate(42.180673, 31.737164)"><g><path d="M 1.734375 -17.484375 L 5.6875 -18.125 L 5.6875 -14 L 10.453125 -14 L 10.453125 -10.703125 L 5.6875 -10.703125 L 5.6875 -5.78125 C 5.6875 -4.945312 5.832031 -4.28125 6.125 -3.78125 C 6.425781 -3.28125 7.019531 -3.03125 7.90625 -3.03125 C 8.332031 -3.03125 8.769531 -3.066406 9.21875 -3.140625 C 9.675781 -3.222656 10.085938 -3.335938 10.453125 -3.484375 L 11.015625 -0.40625 C 10.535156 -0.207031 10.003906 -0.0390625 9.421875 0.09375 C 8.835938 0.238281 8.117188 0.3125 7.265625 0.3125 C 6.179688 0.3125 5.285156 0.164062 4.578125 -0.125 C 3.867188 -0.414062 3.300781 -0.820312 2.875 -1.34375 C 2.445312 -1.863281 2.148438 -2.492188 1.984375 -3.234375 C 1.816406 -3.984375 1.734375 -4.8125 1.734375 -5.71875 Z M 1.734375 -17.484375 "/></g></g></g><g fill="#1c5858" fill-opacity="1"><g transform="translate(53.993915, 31.737164)"><g><path d="M 7.21875 -2.765625 C 7.601562 -2.765625 7.972656 -2.773438 8.328125 -2.796875 C 8.679688 -2.816406 8.96875 -2.84375 9.1875 -2.875 L 9.1875 -5.875 C 9.019531 -5.914062 8.773438 -5.953125 8.453125 -5.984375 C 8.140625 -6.023438 7.847656 -6.046875 7.578125 -6.046875 C 7.210938 -6.046875 6.863281 -6.019531 6.53125 -5.96875 C 6.207031 -5.925781 5.921875 -5.84375 5.671875 -5.71875 C 5.421875 -5.59375 5.222656 -5.421875 5.078125 -5.203125 C 4.941406 -4.992188 4.875 -4.734375 4.875 -4.421875 C 4.875 -3.796875 5.082031 -3.363281 5.5 -3.125 C 5.914062 -2.882812 6.488281 -2.765625 7.21875 -2.765625 Z M 6.890625 -14.375 C 8.054688 -14.375 9.03125 -14.238281 9.8125 -13.96875 C 10.59375 -13.707031 11.21875 -13.328125 11.6875 -12.828125 C 12.164062 -12.328125 12.5 -11.722656 12.6875 -11.015625 C 12.882812 -10.304688 12.984375 -9.515625 12.984375 -8.640625 L 12.984375 -0.40625 C 12.421875 -0.28125 11.628906 -0.132812 10.609375 0.03125 C 9.597656 0.207031 8.375 0.296875 6.9375 0.296875 C 6.039062 0.296875 5.222656 0.210938 4.484375 0.046875 C 3.742188 -0.109375 3.109375 -0.367188 2.578125 -0.734375 C 2.046875 -1.097656 1.640625 -1.570312 1.359375 -2.15625 C 1.078125 -2.738281 0.9375 -3.457031 0.9375 -4.3125 C 0.9375 -5.125 1.097656 -5.8125 1.421875 -6.375 C 1.753906 -6.945312 2.191406 -7.398438 2.734375 -7.734375 C 3.285156 -8.078125 3.914062 -8.320312 4.625 -8.46875 C 5.332031 -8.625 6.070312 -8.703125 6.84375 -8.703125 C 7.351562 -8.703125 7.804688 -8.675781 8.203125 -8.625 C 8.609375 -8.582031 8.9375 -8.53125 9.1875 -8.46875 L 9.1875 -8.828125 C 9.1875 -9.503906 8.976562 -10.046875 8.5625 -10.453125 C 8.15625 -10.859375 7.445312 -11.0625 6.4375 -11.0625 C 5.757812 -11.0625 5.09375 -11.015625 4.4375 -10.921875 C 3.78125 -10.828125 3.210938 -10.691406 2.734375 -10.515625 L 2.234375 -13.703125 C 2.460938 -13.773438 2.75 -13.847656 3.09375 -13.921875 C 3.445312 -14.003906 3.828125 -14.078125 4.234375 -14.140625 C 4.640625 -14.203125 5.066406 -14.253906 5.515625 -14.296875 C 5.972656 -14.347656 6.429688 -14.375 6.890625 -14.375 Z M 6.890625 -14.375 "/></g></g></g><g fill="#1c5858" fill-opacity="1"><g transform="translate(68.704607, 31.737164)"><g><path d="M 5.828125 0 L 1.859375 0 L 1.859375 -14 L 5.828125 -14 Z M 6.203125 -18.046875 C 6.203125 -17.316406 5.96875 -16.742188 5.5 -16.328125 C 5.03125 -15.910156 4.472656 -15.703125 3.828125 -15.703125 C 3.191406 -15.703125 2.640625 -15.910156 2.171875 -16.328125 C 1.703125 -16.742188 1.46875 -17.316406 1.46875 -18.046875 C 1.46875 -18.765625 1.703125 -19.332031 2.171875 -19.75 C 2.640625 -20.175781 3.191406 -20.390625 3.828125 -20.390625 C 4.472656 -20.390625 5.03125 -20.175781 5.5 -19.75 C 5.96875 -19.332031 6.203125 -18.765625 6.203125 -18.046875 Z M 6.203125 -18.046875 "/></g></g></g><g fill="#ff5e14" fill-opacity="1"><g transform="translate(76.400162, 31.737164)"><g><path d="M 1.859375 -13.515625 C 2.535156 -13.710938 3.40625 -13.894531 4.46875 -14.0625 C 5.53125 -14.226562 6.648438 -14.3125 7.828125 -14.3125 C 9.015625 -14.3125 10 -14.15625 10.78125 -13.84375 C 11.570312 -13.539062 12.195312 -13.101562 12.65625 -12.53125 C 13.125 -11.96875 13.453125 -11.296875 13.640625 -10.515625 C 13.835938 -9.734375 13.9375 -8.863281 13.9375 -7.90625 L 13.9375 0 L 9.984375 0 L 9.984375 -7.421875 C 9.984375 -8.703125 9.8125 -9.609375 9.46875 -10.140625 C 9.132812 -10.671875 8.503906 -10.9375 7.578125 -10.9375 C 7.296875 -10.9375 6.992188 -10.921875 6.671875 -10.890625 C 6.359375 -10.867188 6.078125 -10.835938 5.828125 -10.796875 L 5.828125 0 L 1.859375 0 Z M 1.859375 -13.515625 "/></g></g></g><g fill="#1c5858" fill-opacity="1"><g transform="translate(92.079848, 31.737164)"><g><path d="M 1.734375 -17.484375 L 5.6875 -18.125 L 5.6875 -14 L 10.453125 -14 L 10.453125 -10.703125 L 5.6875 -10.703125 L 5.6875 -5.78125 C 5.6875 -4.945312 5.832031 -4.28125 6.125 -3.78125 C 6.425781 -3.28125 7.019531 -3.03125 7.90625 -3.03125 C 8.332031 -3.03125 8.769531 -3.066406 9.21875 -3.140625 C 9.675781 -3.222656 10.085938 -3.335938 10.453125 -3.484375 L 11.015625 -0.40625 C 10.535156 -0.207031 10.003906 -0.0390625 9.421875 0.09375 C 8.835938 0.238281 8.117188 0.3125 7.265625 0.3125 C 6.179688 0.3125 5.285156 0.164062 4.578125 -0.125 C 3.867188 -0.414062 3.300781 -0.820312 2.875 -1.34375 C 2.445312 -1.863281 2.148438 -2.492188 1.984375 -3.234375 C 1.816406 -3.984375 1.734375 -4.8125 1.734375 -5.71875 Z M 1.734375 -17.484375 "/></g></g></g><g fill="#1c5858" fill-opacity="1"><g transform="translate(103.890962, 31.737164)"><g><path d="M 1.203125 -6.890625 C 1.203125 -8.128906 1.390625 -9.210938 1.765625 -10.140625 C 2.148438 -11.078125 2.648438 -11.851562 3.265625 -12.46875 C 3.890625 -13.09375 4.601562 -13.566406 5.40625 -13.890625 C 6.21875 -14.210938 7.050781 -14.375 7.90625 -14.375 C 9.894531 -14.375 11.460938 -13.765625 12.609375 -12.546875 C 13.765625 -11.328125 14.34375 -9.539062 14.34375 -7.1875 C 14.34375 -6.957031 14.332031 -6.703125 14.3125 -6.421875 C 14.300781 -6.148438 14.285156 -5.90625 14.265625 -5.6875 L 5.265625 -5.6875 C 5.359375 -4.875 5.738281 -4.226562 6.40625 -3.75 C 7.082031 -3.269531 7.988281 -3.03125 9.125 -3.03125 C 9.851562 -3.03125 10.566406 -3.097656 11.265625 -3.234375 C 11.960938 -3.367188 12.535156 -3.53125 12.984375 -3.71875 L 13.515625 -0.5 C 13.304688 -0.394531 13.023438 -0.289062 12.671875 -0.1875 C 12.316406 -0.0820312 11.921875 0.0078125 11.484375 0.09375 C 11.046875 0.175781 10.578125 0.242188 10.078125 0.296875 C 9.585938 0.347656 9.09375 0.375 8.59375 0.375 C 7.332031 0.375 6.234375 0.1875 5.296875 -0.1875 C 4.367188 -0.5625 3.597656 -1.070312 2.984375 -1.71875 C 2.378906 -2.363281 1.929688 -3.128906 1.640625 -4.015625 C 1.347656 -4.898438 1.203125 -5.859375 1.203125 -6.890625 Z M 10.515625 -8.40625 C 10.492188 -8.75 10.429688 -9.078125 10.328125 -9.390625 C 10.234375 -9.710938 10.082031 -9.992188 9.875 -10.234375 C 9.675781 -10.484375 9.421875 -10.6875 9.109375 -10.84375 C 8.796875 -11.007812 8.410156 -11.09375 7.953125 -11.09375 C 7.515625 -11.09375 7.132812 -11.015625 6.8125 -10.859375 C 6.488281 -10.710938 6.21875 -10.515625 6 -10.265625 C 5.789062 -10.023438 5.628906 -9.738281 5.515625 -9.40625 C 5.398438 -9.082031 5.316406 -8.75 5.265625 -8.40625 Z M 10.515625 -8.40625 "/></g></g></g><g fill="#1c5858" fill-opacity="1"><g transform="translate(119.426303, 31.737164)"><g><path d="M 1.203125 -7 C 1.203125 -8.007812 1.363281 -8.960938 1.6875 -9.859375 C 2.019531 -10.753906 2.492188 -11.535156 3.109375 -12.203125 C 3.734375 -12.867188 4.488281 -13.394531 5.375 -13.78125 C 6.257812 -14.175781 7.269531 -14.375 8.40625 -14.375 C 9.15625 -14.375 9.835938 -14.304688 10.453125 -14.171875 C 11.078125 -14.035156 11.679688 -13.84375 12.265625 -13.59375 L 11.4375 -10.4375 C 11.070312 -10.570312 10.664062 -10.691406 10.21875 -10.796875 C 9.769531 -10.910156 9.273438 -10.96875 8.734375 -10.96875 C 7.554688 -10.96875 6.675781 -10.601562 6.09375 -9.875 C 5.519531 -9.144531 5.234375 -8.1875 5.234375 -7 C 5.234375 -5.738281 5.503906 -4.757812 6.046875 -4.0625 C 6.585938 -3.375 7.535156 -3.03125 8.890625 -3.03125 C 9.367188 -3.03125 9.878906 -3.070312 10.421875 -3.15625 C 10.972656 -3.25 11.484375 -3.394531 11.953125 -3.59375 L 12.5 -0.34375 C 12.039062 -0.144531 11.460938 0.0195312 10.765625 0.15625 C 10.078125 0.300781 9.316406 0.375 8.484375 0.375 C 7.210938 0.375 6.113281 0.1875 5.1875 -0.1875 C 4.269531 -0.570312 3.507812 -1.09375 2.90625 -1.75 C 2.3125 -2.40625 1.878906 -3.179688 1.609375 -4.078125 C 1.335938 -4.972656 1.203125 -5.945312 1.203125 -7 Z M 1.203125 -7 "/></g></g></g><g fill="#1c5858" fill-opacity="1"><g transform="translate(132.727106, 31.737164)"><g><path d="M 1.859375 0 L 1.859375 -20.015625 L 5.828125 -20.65625 L 5.828125 -13.9375 C 6.097656 -14.03125 6.441406 -14.113281 6.859375 -14.1875 C 7.273438 -14.269531 7.675781 -14.3125 8.0625 -14.3125 C 9.195312 -14.3125 10.140625 -14.15625 10.890625 -13.84375 C 11.648438 -13.539062 12.253906 -13.101562 12.703125 -12.53125 C 13.160156 -11.96875 13.476562 -11.296875 13.65625 -10.515625 C 13.84375 -9.734375 13.9375 -8.863281 13.9375 -7.90625 L 13.9375 0 L 9.984375 0 L 9.984375 -7.421875 C 9.984375 -8.703125 9.816406 -9.609375 9.484375 -10.140625 C 9.160156 -10.671875 8.550781 -10.9375 7.65625 -10.9375 C 7.300781 -10.9375 6.96875 -10.90625 6.65625 -10.84375 C 6.351562 -10.78125 6.078125 -10.710938 5.828125 -10.640625 L 5.828125 0 Z M 1.859375 0 "/></g></g></g><g fill="#11222c" fill-opacity="1"><g transform="translate(92.157125, 9.919401)"><g><path d="M 0.59375 -3.453125 C 0.59375 -4.066406 0.6875 -4.609375 0.875 -5.078125 C 1.070312 -5.546875 1.328125 -5.929688 1.640625 -6.234375 C 1.953125 -6.546875 2.304688 -6.78125 2.703125 -6.9375 C 3.109375 -7.101562 3.523438 -7.1875 3.953125 -7.1875 C 4.941406 -7.1875 5.722656 -6.878906 6.296875 -6.265625 C 6.878906 -5.660156 7.171875 -4.769531 7.171875 -3.59375 C 7.171875 -3.476562 7.164062 -3.351562 7.15625 -3.21875 C 7.15625 -3.082031 7.148438 -2.957031 7.140625 -2.84375 L 2.640625 -2.84375 C 2.679688 -2.4375 2.867188 -2.113281 3.203125 -1.875 C 3.546875 -1.632812 4 -1.515625 4.5625 -1.515625 C 4.925781 -1.515625 5.28125 -1.546875 5.625 -1.609375 C 5.976562 -1.679688 6.269531 -1.765625 6.5 -1.859375 L 6.765625 -0.25 C 6.660156 -0.195312 6.519531 -0.144531 6.34375 -0.09375 C 6.164062 -0.0390625 5.96875 0.00390625 5.75 0.046875 C 5.53125 0.0859375 5.296875 0.117188 5.046875 0.140625 C 4.796875 0.171875 4.546875 0.1875 4.296875 0.1875 C 3.671875 0.1875 3.125 0.09375 2.65625 -0.09375 C 2.1875 -0.28125 1.796875 -0.535156 1.484375 -0.859375 C 1.179688 -1.179688 0.957031 -1.5625 0.8125 -2 C 0.664062 -2.445312 0.59375 -2.929688 0.59375 -3.453125 Z M 5.265625 -4.203125 C 5.253906 -4.367188 5.222656 -4.53125 5.171875 -4.6875 C 5.117188 -4.851562 5.039062 -5 4.9375 -5.125 C 4.84375 -5.25 4.71875 -5.347656 4.5625 -5.421875 C 4.40625 -5.503906 4.210938 -5.546875 3.984375 -5.546875 C 3.753906 -5.546875 3.5625 -5.507812 3.40625 -5.4375 C 3.25 -5.363281 3.113281 -5.265625 3 -5.140625 C 2.894531 -5.015625 2.8125 -4.867188 2.75 -4.703125 C 2.695312 -4.535156 2.660156 -4.367188 2.640625 -4.203125 Z M 5.265625 -4.203125 "/></g></g></g><g fill="#11222c" fill-opacity="1"><g transform="translate(100.856163, 9.919401)"><g><path d="M 3.71875 -4.875 L 5.09375 -7 L 7.15625 -7 L 4.75 -3.640625 C 5.28125 -2.972656 5.765625 -2.320312 6.203125 -1.6875 C 6.640625 -1.0625 6.984375 -0.5 7.234375 0 L 5.109375 0 C 5.035156 -0.132812 4.945312 -0.300781 4.84375 -0.5 C 4.738281 -0.695312 4.617188 -0.90625 4.484375 -1.125 C 4.347656 -1.34375 4.207031 -1.5625 4.0625 -1.78125 C 3.914062 -2 3.773438 -2.195312 3.640625 -2.375 C 3.503906 -2.195312 3.363281 -2.003906 3.21875 -1.796875 C 3.082031 -1.597656 2.953125 -1.394531 2.828125 -1.1875 C 2.710938 -0.976562 2.59375 -0.769531 2.46875 -0.5625 C 2.351562 -0.363281 2.25 -0.175781 2.15625 0 L 0.140625 0 C 0.242188 -0.21875 0.390625 -0.476562 0.578125 -0.78125 C 0.765625 -1.082031 0.960938 -1.394531 1.171875 -1.71875 C 1.390625 -2.039062 1.617188 -2.363281 1.859375 -2.6875 C 2.097656 -3.019531 2.332031 -3.328125 2.5625 -3.609375 C 2.164062 -4.171875 1.765625 -4.734375 1.359375 -5.296875 C 0.960938 -5.867188 0.570312 -6.4375 0.1875 -7 L 2.328125 -7 Z M 3.71875 -4.875 "/></g></g></g><g fill="#11222c" fill-opacity="1"><g transform="translate(109.156179, 9.919401)"><g><path d="M 5.421875 -3.453125 C 5.421875 -4.054688 5.28125 -4.539062 5 -4.90625 C 4.726562 -5.28125 4.320312 -5.46875 3.78125 -5.46875 C 3.601562 -5.46875 3.4375 -5.460938 3.28125 -5.453125 C 3.132812 -5.441406 3.015625 -5.425781 2.921875 -5.40625 L 2.921875 -1.828125 C 3.046875 -1.742188 3.207031 -1.675781 3.40625 -1.625 C 3.601562 -1.570312 3.800781 -1.546875 4 -1.546875 C 4.945312 -1.546875 5.421875 -2.179688 5.421875 -3.453125 Z M 7.4375 -3.5 C 7.4375 -2.957031 7.367188 -2.460938 7.234375 -2.015625 C 7.109375 -1.578125 6.914062 -1.195312 6.65625 -0.875 C 6.394531 -0.5625 6.070312 -0.3125 5.6875 -0.125 C 5.3125 0.0507812 4.875 0.140625 4.375 0.140625 C 4.101562 0.140625 3.847656 0.109375 3.609375 0.046875 C 3.367188 -0.00390625 3.140625 -0.078125 2.921875 -0.171875 L 2.921875 2.46875 L 0.9375 2.46875 L 0.9375 -6.765625 C 1.113281 -6.816406 1.316406 -6.863281 1.546875 -6.90625 C 1.773438 -6.957031 2.015625 -7 2.265625 -7.03125 C 2.523438 -7.070312 2.785156 -7.101562 3.046875 -7.125 C 3.304688 -7.144531 3.554688 -7.15625 3.796875 -7.15625 C 4.367188 -7.15625 4.878906 -7.066406 5.328125 -6.890625 C 5.785156 -6.722656 6.171875 -6.484375 6.484375 -6.171875 C 6.796875 -5.859375 7.03125 -5.472656 7.1875 -5.015625 C 7.351562 -4.566406 7.4375 -4.0625 7.4375 -3.5 Z M 7.4375 -3.5 "/></g></g></g><g fill="#11222c" fill-opacity="1"><g transform="translate(118.121234, 9.919401)"><g><path d="M 0.59375 -3.453125 C 0.59375 -4.066406 0.6875 -4.609375 0.875 -5.078125 C 1.070312 -5.546875 1.328125 -5.929688 1.640625 -6.234375 C 1.953125 -6.546875 2.304688 -6.78125 2.703125 -6.9375 C 3.109375 -7.101562 3.523438 -7.1875 3.953125 -7.1875 C 4.941406 -7.1875 5.722656 -6.878906 6.296875 -6.265625 C 6.878906 -5.660156 7.171875 -4.769531 7.171875 -3.59375 C 7.171875 -3.476562 7.164062 -3.351562 7.15625 -3.21875 C 7.15625 -3.082031 7.148438 -2.957031 7.140625 -2.84375 L 2.640625 -2.84375 C 2.679688 -2.4375 2.867188 -2.113281 3.203125 -1.875 C 3.546875 -1.632812 4 -1.515625 4.5625 -1.515625 C 4.925781 -1.515625 5.28125 -1.546875 5.625 -1.609375 C 5.976562 -1.679688 6.269531 -1.765625 6.5 -1.859375 L 6.765625 -0.25 C 6.660156 -0.195312 6.519531 -0.144531 6.34375 -0.09375 C 6.164062 -0.0390625 5.96875 0.00390625 5.75 0.046875 C 5.53125 0.0859375 5.296875 0.117188 5.046875 0.140625 C 4.796875 0.171875 4.546875 0.1875 4.296875 0.1875 C 3.671875 0.1875 3.125 0.09375 2.65625 -0.09375 C 2.1875 -0.28125 1.796875 -0.535156 1.484375 -0.859375 C 1.179688 -1.179688 0.957031 -1.5625 0.8125 -2 C 0.664062 -2.445312 0.59375 -2.929688 0.59375 -3.453125 Z M 5.265625 -4.203125 C 5.253906 -4.367188 5.222656 -4.53125 5.171875 -4.6875 C 5.117188 -4.851562 5.039062 -5 4.9375 -5.125 C 4.84375 -5.25 4.71875 -5.347656 4.5625 -5.421875 C 4.40625 -5.503906 4.210938 -5.546875 3.984375 -5.546875 C 3.753906 -5.546875 3.5625 -5.507812 3.40625 -5.4375 C 3.25 -5.363281 3.113281 -5.265625 3 -5.140625 C 2.894531 -5.015625 2.8125 -4.867188 2.75 -4.703125 C 2.695312 -4.535156 2.660156 -4.367188 2.640625 -4.203125 Z M 5.265625 -4.203125 "/></g></g></g><g fill="#11222c" fill-opacity="1"><g transform="translate(126.820271, 9.919401)"><g><path d="M 5.15625 -5.25 C 4.976562 -5.289062 4.769531 -5.332031 4.53125 -5.375 C 4.289062 -5.425781 4.03125 -5.453125 3.75 -5.453125 C 3.625 -5.453125 3.472656 -5.441406 3.296875 -5.421875 C 3.128906 -5.398438 3.003906 -5.378906 2.921875 -5.359375 L 2.921875 0 L 0.9375 0 L 0.9375 -6.625 C 1.289062 -6.75 1.707031 -6.867188 2.1875 -6.984375 C 2.675781 -7.097656 3.21875 -7.15625 3.8125 -7.15625 C 3.914062 -7.15625 4.039062 -7.144531 4.1875 -7.125 C 4.34375 -7.113281 4.492188 -7.097656 4.640625 -7.078125 C 4.796875 -7.054688 4.945312 -7.03125 5.09375 -7 C 5.25 -6.96875 5.378906 -6.925781 5.484375 -6.875 Z M 5.15625 -5.25 "/></g></g></g><g fill="#11222c" fill-opacity="1"><g transform="translate(133.364591, 9.919401)"><g><path d="M 0.859375 -8.75 L 2.84375 -9.0625 L 2.84375 -7 L 5.234375 -7 L 5.234375 -5.359375 L 2.84375 -5.359375 L 2.84375 -2.890625 C 2.84375 -2.472656 2.914062 -2.140625 3.0625 -1.890625 C 3.207031 -1.640625 3.503906 -1.515625 3.953125 -1.515625 C 4.160156 -1.515625 4.378906 -1.535156 4.609375 -1.578125 C 4.835938 -1.617188 5.046875 -1.675781 5.234375 -1.75 L 5.515625 -0.203125 C 5.273438 -0.0976562 5.003906 -0.015625 4.703125 0.046875 C 4.410156 0.117188 4.054688 0.15625 3.640625 0.15625 C 3.097656 0.15625 2.644531 0.0820312 2.28125 -0.0625 C 1.925781 -0.207031 1.644531 -0.410156 1.4375 -0.671875 C 1.226562 -0.929688 1.078125 -1.25 0.984375 -1.625 C 0.898438 -2 0.859375 -2.410156 0.859375 -2.859375 Z M 0.859375 -8.75 "/></g></g></g><g fill="#11222c" fill-opacity="1"><g transform="translate(140.201528, 9.919401)"><g><path d="M 2.9375 -1.421875 C 3.300781 -1.421875 3.554688 -1.457031 3.703125 -1.53125 C 3.859375 -1.601562 3.9375 -1.738281 3.9375 -1.9375 C 3.9375 -2.101562 3.835938 -2.242188 3.640625 -2.359375 C 3.453125 -2.484375 3.15625 -2.617188 2.75 -2.765625 C 2.445312 -2.878906 2.164062 -3 1.90625 -3.125 C 1.65625 -3.25 1.441406 -3.394531 1.265625 -3.5625 C 1.085938 -3.738281 0.945312 -3.945312 0.84375 -4.1875 C 0.75 -4.425781 0.703125 -4.71875 0.703125 -5.0625 C 0.703125 -5.71875 0.945312 -6.234375 1.4375 -6.609375 C 1.925781 -6.992188 2.597656 -7.1875 3.453125 -7.1875 C 3.878906 -7.1875 4.285156 -7.148438 4.671875 -7.078125 C 5.066406 -7.003906 5.378906 -6.921875 5.609375 -6.828125 L 5.265625 -5.28125 C 5.023438 -5.363281 4.769531 -5.4375 4.5 -5.5 C 4.226562 -5.5625 3.925781 -5.59375 3.59375 -5.59375 C 2.96875 -5.59375 2.65625 -5.421875 2.65625 -5.078125 C 2.65625 -4.992188 2.671875 -4.921875 2.703125 -4.859375 C 2.734375 -4.796875 2.785156 -4.734375 2.859375 -4.671875 C 2.941406 -4.617188 3.050781 -4.554688 3.1875 -4.484375 C 3.320312 -4.421875 3.5 -4.347656 3.71875 -4.265625 C 4.144531 -4.109375 4.5 -3.953125 4.78125 -3.796875 C 5.070312 -3.640625 5.300781 -3.46875 5.46875 -3.28125 C 5.632812 -3.101562 5.75 -2.90625 5.8125 -2.6875 C 5.875 -2.46875 5.90625 -2.210938 5.90625 -1.921875 C 5.90625 -1.222656 5.644531 -0.695312 5.125 -0.34375 C 4.613281 0.0078125 3.878906 0.1875 2.921875 0.1875 C 2.304688 0.1875 1.789062 0.128906 1.375 0.015625 C 0.96875 -0.0859375 0.679688 -0.171875 0.515625 -0.234375 L 0.859375 -1.84375 C 1.191406 -1.71875 1.535156 -1.613281 1.890625 -1.53125 C 2.242188 -1.457031 2.59375 -1.421875 2.9375 -1.421875 Z M 2.9375 -1.421875 "/></g></g></g><g fill="#11222c" fill-opacity="1"><g transform="translate(0.963727, 39.260527)"><g><path d="M 4.703125 -2.5 C 4.703125 -2.0625 4.632812 -1.679688 4.5 -1.359375 C 4.375 -1.046875 4.1875 -0.785156 3.9375 -0.578125 C 3.695312 -0.367188 3.40625 -0.210938 3.0625 -0.109375 C 2.71875 -0.00390625 2.34375 0.046875 1.9375 0.046875 C 1.738281 0.046875 1.515625 0.0351562 1.265625 0.015625 C 1.023438 0.00390625 0.8125 -0.0234375 0.625 -0.078125 L 0.625 -4.90625 C 0.8125 -4.957031 1.023438 -4.988281 1.265625 -5 C 1.515625 -5.019531 1.738281 -5.03125 1.9375 -5.03125 C 2.34375 -5.03125 2.71875 -4.976562 3.0625 -4.875 C 3.40625 -4.769531 3.695312 -4.613281 3.9375 -4.40625 C 4.1875 -4.195312 4.375 -3.929688 4.5 -3.609375 C 4.632812 -3.296875 4.703125 -2.925781 4.703125 -2.5 Z M 2 -0.5625 C 2.65625 -0.5625 3.144531 -0.726562 3.46875 -1.0625 C 3.800781 -1.40625 3.96875 -1.882812 3.96875 -2.5 C 3.96875 -3.101562 3.800781 -3.570312 3.46875 -3.90625 C 3.144531 -4.25 2.65625 -4.421875 2 -4.421875 C 1.800781 -4.421875 1.644531 -4.414062 1.53125 -4.40625 C 1.425781 -4.40625 1.351562 -4.40625 1.3125 -4.40625 L 1.3125 -0.59375 C 1.351562 -0.582031 1.425781 -0.570312 1.53125 -0.5625 C 1.644531 -0.5625 1.800781 -0.5625 2 -0.5625 Z M 2 -0.5625 "/></g></g></g><g fill="#11222c" fill-opacity="1"><g transform="translate(7.584704, 39.260527)"><g><path d="M 1.25 0 L 0.578125 0 L 0.578125 -3.734375 L 1.25 -3.734375 Z M 0.90625 -4.40625 C 0.78125 -4.40625 0.675781 -4.445312 0.59375 -4.53125 C 0.507812 -4.613281 0.46875 -4.722656 0.46875 -4.859375 C 0.46875 -4.984375 0.507812 -5.085938 0.59375 -5.171875 C 0.675781 -5.253906 0.78125 -5.296875 0.90625 -5.296875 C 1.019531 -5.296875 1.117188 -5.253906 1.203125 -5.171875 C 1.296875 -5.085938 1.34375 -4.984375 1.34375 -4.859375 C 1.34375 -4.722656 1.296875 -4.613281 1.203125 -4.53125 C 1.117188 -4.445312 1.019531 -4.40625 0.90625 -4.40625 Z M 0.90625 -4.40625 "/></g></g></g><g fill="#11222c" fill-opacity="1"><g transform="translate(10.898784, 39.260527)"><g><path d="M 2.921875 -0.375 C 2.859375 -0.332031 2.742188 -0.28125 2.578125 -0.21875 C 2.421875 -0.164062 2.226562 -0.140625 2 -0.140625 C 1.78125 -0.140625 1.570312 -0.175781 1.375 -0.25 C 1.175781 -0.320312 1 -0.429688 0.84375 -0.578125 C 0.695312 -0.734375 0.578125 -0.921875 0.484375 -1.140625 C 0.398438 -1.367188 0.359375 -1.640625 0.359375 -1.953125 C 0.359375 -2.222656 0.398438 -2.472656 0.484375 -2.703125 C 0.566406 -2.929688 0.6875 -3.125 0.84375 -3.28125 C 1 -3.445312 1.1875 -3.578125 1.40625 -3.671875 C 1.632812 -3.765625 1.890625 -3.8125 2.171875 -3.8125 C 2.484375 -3.8125 2.753906 -3.789062 2.984375 -3.75 C 3.222656 -3.707031 3.421875 -3.664062 3.578125 -3.625 L 3.578125 -0.28125 C 3.578125 0.289062 3.425781 0.703125 3.125 0.953125 C 2.832031 1.210938 2.382812 1.34375 1.78125 1.34375 C 1.550781 1.34375 1.332031 1.320312 1.125 1.28125 C 0.914062 1.25 0.734375 1.207031 0.578125 1.15625 L 0.703125 0.578125 C 0.835938 0.628906 1 0.675781 1.1875 0.71875 C 1.382812 0.757812 1.585938 0.78125 1.796875 0.78125 C 2.191406 0.78125 2.476562 0.695312 2.65625 0.53125 C 2.832031 0.375 2.921875 0.125 2.921875 -0.21875 Z M 2.90625 -3.140625 C 2.84375 -3.160156 2.753906 -3.179688 2.640625 -3.203125 C 2.523438 -3.222656 2.375 -3.234375 2.1875 -3.234375 C 1.820312 -3.234375 1.539062 -3.113281 1.34375 -2.875 C 1.15625 -2.632812 1.0625 -2.320312 1.0625 -1.9375 C 1.0625 -1.726562 1.085938 -1.546875 1.140625 -1.390625 C 1.203125 -1.234375 1.28125 -1.101562 1.375 -1 C 1.46875 -0.90625 1.570312 -0.832031 1.6875 -0.78125 C 1.8125 -0.738281 1.9375 -0.71875 2.0625 -0.71875 C 2.25 -0.71875 2.414062 -0.738281 2.5625 -0.78125 C 2.707031 -0.832031 2.820312 -0.894531 2.90625 -0.96875 Z M 2.90625 -3.140625 "/></g></g></g><g fill="#11222c" fill-opacity="1"><g transform="translate(16.549257, 39.260527)"><g><path d="M 1.25 0 L 0.578125 0 L 0.578125 -3.734375 L 1.25 -3.734375 Z M 0.90625 -4.40625 C 0.78125 -4.40625 0.675781 -4.445312 0.59375 -4.53125 C 0.507812 -4.613281 0.46875 -4.722656 0.46875 -4.859375 C 0.46875 -4.984375 0.507812 -5.085938 0.59375 -5.171875 C 0.675781 -5.253906 0.78125 -5.296875 0.90625 -5.296875 C 1.019531 -5.296875 1.117188 -5.253906 1.203125 -5.171875 C 1.296875 -5.085938 1.34375 -4.984375 1.34375 -4.859375 C 1.34375 -4.722656 1.296875 -4.613281 1.203125 -4.53125 C 1.117188 -4.445312 1.019531 -4.40625 0.90625 -4.40625 Z M 0.90625 -4.40625 "/></g></g></g><g fill="#11222c" fill-opacity="1"><g transform="translate(19.863337, 39.260527)"><g><path d="M 1.203125 -3.734375 L 2.609375 -3.734375 L 2.609375 -3.171875 L 1.203125 -3.171875 L 1.203125 -1.453125 C 1.203125 -1.265625 1.210938 -1.109375 1.234375 -0.984375 C 1.265625 -0.867188 1.304688 -0.773438 1.359375 -0.703125 C 1.421875 -0.628906 1.492188 -0.578125 1.578125 -0.546875 C 1.671875 -0.523438 1.773438 -0.515625 1.890625 -0.515625 C 2.085938 -0.515625 2.25 -0.535156 2.375 -0.578125 C 2.5 -0.617188 2.582031 -0.648438 2.625 -0.671875 L 2.765625 -0.125 C 2.691406 -0.09375 2.570312 -0.0507812 2.40625 0 C 2.238281 0.0507812 2.046875 0.078125 1.828125 0.078125 C 1.578125 0.078125 1.367188 0.046875 1.203125 -0.015625 C 1.035156 -0.078125 0.898438 -0.171875 0.796875 -0.296875 C 0.703125 -0.429688 0.632812 -0.59375 0.59375 -0.78125 C 0.550781 -0.976562 0.53125 -1.195312 0.53125 -1.4375 L 0.53125 -4.78125 L 1.203125 -4.890625 Z M 1.203125 -3.734375 "/></g></g></g><g fill="#11222c" fill-opacity="1"><g transform="translate(24.248564, 39.260527)"><g><path d="M 1.84375 -0.484375 C 2 -0.484375 2.132812 -0.484375 2.25 -0.484375 C 2.375 -0.492188 2.476562 -0.507812 2.5625 -0.53125 L 2.5625 -1.640625 C 2.519531 -1.671875 2.441406 -1.691406 2.328125 -1.703125 C 2.222656 -1.722656 2.09375 -1.734375 1.9375 -1.734375 C 1.84375 -1.734375 1.738281 -1.722656 1.625 -1.703125 C 1.507812 -1.691406 1.40625 -1.660156 1.3125 -1.609375 C 1.21875 -1.566406 1.140625 -1.503906 1.078125 -1.421875 C 1.015625 -1.347656 0.984375 -1.25 0.984375 -1.125 C 0.984375 -0.882812 1.054688 -0.71875 1.203125 -0.625 C 1.359375 -0.53125 1.570312 -0.484375 1.84375 -0.484375 Z M 1.78125 -3.828125 C 2.050781 -3.828125 2.273438 -3.789062 2.453125 -3.71875 C 2.640625 -3.65625 2.789062 -3.554688 2.90625 -3.421875 C 3.019531 -3.296875 3.097656 -3.144531 3.140625 -2.96875 C 3.191406 -2.800781 3.21875 -2.613281 3.21875 -2.40625 L 3.21875 -0.0625 C 3.164062 -0.0507812 3.085938 -0.0351562 2.984375 -0.015625 C 2.878906 -0.00390625 2.757812 0.00390625 2.625 0.015625 C 2.5 0.0351562 2.359375 0.0507812 2.203125 0.0625 C 2.054688 0.0703125 1.910156 0.078125 1.765625 0.078125 C 1.546875 0.078125 1.347656 0.0546875 1.171875 0.015625 C 0.992188 -0.0234375 0.84375 -0.09375 0.71875 -0.1875 C 0.59375 -0.28125 0.492188 -0.40625 0.421875 -0.5625 C 0.347656 -0.71875 0.3125 -0.898438 0.3125 -1.109375 C 0.3125 -1.316406 0.351562 -1.492188 0.4375 -1.640625 C 0.519531 -1.796875 0.628906 -1.914062 0.765625 -2 C 0.910156 -2.09375 1.078125 -2.160156 1.265625 -2.203125 C 1.460938 -2.242188 1.671875 -2.265625 1.890625 -2.265625 C 1.953125 -2.265625 2.019531 -2.257812 2.09375 -2.25 C 2.164062 -2.25 2.234375 -2.242188 2.296875 -2.234375 C 2.359375 -2.222656 2.410156 -2.210938 2.453125 -2.203125 C 2.503906 -2.191406 2.539062 -2.179688 2.5625 -2.171875 L 2.5625 -2.359375 C 2.5625 -2.472656 2.550781 -2.582031 2.53125 -2.6875 C 2.507812 -2.800781 2.46875 -2.898438 2.40625 -2.984375 C 2.34375 -3.066406 2.253906 -3.128906 2.140625 -3.171875 C 2.035156 -3.222656 1.894531 -3.25 1.71875 -3.25 C 1.5 -3.25 1.304688 -3.234375 1.140625 -3.203125 C 0.984375 -3.171875 0.863281 -3.140625 0.78125 -3.109375 L 0.703125 -3.671875 C 0.785156 -3.703125 0.925781 -3.734375 1.125 -3.765625 C 1.332031 -3.804688 1.550781 -3.828125 1.78125 -3.828125 Z M 1.78125 -3.828125 "/></g></g></g><g fill="#11222c" fill-opacity="1"><g transform="translate(29.496456, 39.260527)"><g><path d="M 1.703125 0.078125 C 1.285156 0.0664062 0.988281 -0.0195312 0.8125 -0.1875 C 0.644531 -0.363281 0.5625 -0.628906 0.5625 -0.984375 L 0.5625 -5.46875 L 1.234375 -5.578125 L 1.234375 -1.078125 C 1.234375 -0.972656 1.238281 -0.882812 1.25 -0.8125 C 1.269531 -0.738281 1.300781 -0.679688 1.34375 -0.640625 C 1.394531 -0.597656 1.453125 -0.566406 1.515625 -0.546875 C 1.585938 -0.523438 1.679688 -0.503906 1.796875 -0.484375 Z M 1.703125 0.078125 "/></g></g></g><g fill="#11222c" fill-opacity="1"><g transform="translate(32.954308, 39.260527)"><g><path d="M 1.25 0 L 0.578125 0 L 0.578125 -3.734375 L 1.25 -3.734375 Z M 0.90625 -4.40625 C 0.78125 -4.40625 0.675781 -4.445312 0.59375 -4.53125 C 0.507812 -4.613281 0.46875 -4.722656 0.46875 -4.859375 C 0.46875 -4.984375 0.507812 -5.085938 0.59375 -5.171875 C 0.675781 -5.253906 0.78125 -5.296875 0.90625 -5.296875 C 1.019531 -5.296875 1.117188 -5.253906 1.203125 -5.171875 C 1.296875 -5.085938 1.34375 -4.984375 1.34375 -4.859375 C 1.34375 -4.722656 1.296875 -4.613281 1.203125 -4.53125 C 1.117188 -4.445312 1.019531 -4.40625 0.90625 -4.40625 Z M 0.90625 -4.40625 "/></g></g></g><g fill="#11222c" fill-opacity="1"><g transform="translate(36.268389, 39.260527)"><g><path d="M 3.0625 -3.234375 C 2.957031 -3.117188 2.820312 -2.960938 2.65625 -2.765625 C 2.488281 -2.566406 2.3125 -2.34375 2.125 -2.09375 C 1.9375 -1.851562 1.742188 -1.597656 1.546875 -1.328125 C 1.359375 -1.054688 1.195312 -0.800781 1.0625 -0.5625 L 3.109375 -0.5625 L 3.109375 0 L 0.265625 0 L 0.265625 -0.453125 C 0.378906 -0.660156 0.519531 -0.890625 0.6875 -1.140625 C 0.851562 -1.398438 1.023438 -1.65625 1.203125 -1.90625 C 1.390625 -2.15625 1.570312 -2.390625 1.75 -2.609375 C 1.925781 -2.835938 2.078125 -3.023438 2.203125 -3.171875 L 0.359375 -3.171875 L 0.359375 -3.734375 L 3.0625 -3.734375 Z M 3.0625 -3.234375 "/></g></g></g><g fill="#11222c" fill-opacity="1"><g transform="translate(41.149649, 39.260527)"><g><path d="M 0.359375 -1.859375 C 0.359375 -2.191406 0.40625 -2.476562 0.5 -2.71875 C 0.601562 -2.96875 0.734375 -3.175781 0.890625 -3.34375 C 1.046875 -3.507812 1.226562 -3.628906 1.4375 -3.703125 C 1.644531 -3.785156 1.851562 -3.828125 2.0625 -3.828125 C 2.570312 -3.828125 2.957031 -3.671875 3.21875 -3.359375 C 3.488281 -3.046875 3.625 -2.566406 3.625 -1.921875 C 3.625 -1.898438 3.625 -1.863281 3.625 -1.8125 C 3.625 -1.769531 3.625 -1.726562 3.625 -1.6875 L 1.0625 -1.6875 C 1.09375 -1.300781 1.207031 -1.003906 1.40625 -0.796875 C 1.601562 -0.597656 1.910156 -0.5 2.328125 -0.5 C 2.554688 -0.5 2.75 -0.519531 2.90625 -0.5625 C 3.070312 -0.601562 3.195312 -0.644531 3.28125 -0.6875 L 3.375 -0.125 C 3.289062 -0.0820312 3.144531 -0.0351562 2.9375 0.015625 C 2.738281 0.0664062 2.507812 0.09375 2.25 0.09375 C 1.925781 0.09375 1.644531 0.046875 1.40625 -0.046875 C 1.164062 -0.148438 0.96875 -0.285156 0.8125 -0.453125 C 0.664062 -0.628906 0.550781 -0.835938 0.46875 -1.078125 C 0.394531 -1.316406 0.359375 -1.578125 0.359375 -1.859375 Z M 2.9375 -2.234375 C 2.9375 -2.535156 2.859375 -2.78125 2.703125 -2.96875 C 2.546875 -3.164062 2.332031 -3.265625 2.0625 -3.265625 C 1.90625 -3.265625 1.769531 -3.234375 1.65625 -3.171875 C 1.539062 -3.109375 1.441406 -3.03125 1.359375 -2.9375 C 1.273438 -2.84375 1.207031 -2.734375 1.15625 -2.609375 C 1.113281 -2.484375 1.085938 -2.359375 1.078125 -2.234375 Z M 2.9375 -2.234375 "/></g></g></g><g fill="#000000" fill-opacity="1"><g transform="translate(46.67102, 39.260527)"><g/></g></g><g fill="#ff5e14" fill-opacity="1"><g transform="translate(49.834867, 39.260527)"><g><path d="M 0.6875 -5.625 L 1.3125 -5.625 L 1.3125 1.328125 L 0.6875 1.328125 Z M 0.6875 -5.625 "/></g></g></g><g fill="#000000" fill-opacity="1"><g transform="translate(53.345052, 39.260527)"><g/></g></g><g fill="#11222c" fill-opacity="1"><g transform="translate(56.508899, 39.260527)"><g><path d="M 0.421875 -2.5 C 0.421875 -2.925781 0.484375 -3.300781 0.609375 -3.625 C 0.734375 -3.945312 0.90625 -4.21875 1.125 -4.4375 C 1.34375 -4.65625 1.597656 -4.816406 1.890625 -4.921875 C 2.179688 -5.035156 2.488281 -5.09375 2.8125 -5.09375 C 3.132812 -5.09375 3.4375 -5.035156 3.71875 -4.921875 C 4 -4.816406 4.25 -4.65625 4.46875 -4.4375 C 4.6875 -4.21875 4.859375 -3.945312 4.984375 -3.625 C 5.109375 -3.300781 5.171875 -2.925781 5.171875 -2.5 C 5.171875 -2.070312 5.109375 -1.691406 4.984375 -1.359375 C 4.859375 -1.035156 4.6875 -0.765625 4.46875 -0.546875 C 4.25 -0.328125 4 -0.160156 3.71875 -0.046875 C 3.4375 0.0546875 3.132812 0.109375 2.8125 0.109375 C 2.488281 0.109375 2.179688 0.0546875 1.890625 -0.046875 C 1.597656 -0.160156 1.34375 -0.328125 1.125 -0.546875 C 0.90625 -0.765625 0.734375 -1.035156 0.609375 -1.359375 C 0.484375 -1.691406 0.421875 -2.070312 0.421875 -2.5 Z M 1.15625 -2.5 C 1.15625 -2.195312 1.191406 -1.921875 1.265625 -1.671875 C 1.335938 -1.421875 1.441406 -1.207031 1.578125 -1.03125 C 1.722656 -0.863281 1.898438 -0.734375 2.109375 -0.640625 C 2.316406 -0.546875 2.546875 -0.5 2.796875 -0.5 C 3.046875 -0.5 3.269531 -0.546875 3.46875 -0.640625 C 3.675781 -0.734375 3.847656 -0.863281 3.984375 -1.03125 C 4.128906 -1.207031 4.238281 -1.421875 4.3125 -1.671875 C 4.394531 -1.921875 4.4375 -2.195312 4.4375 -2.5 C 4.4375 -2.800781 4.394531 -3.070312 4.3125 -3.3125 C 4.238281 -3.5625 4.128906 -3.769531 3.984375 -3.9375 C 3.847656 -4.113281 3.675781 -4.25 3.46875 -4.34375 C 3.269531 -4.4375 3.046875 -4.484375 2.796875 -4.484375 C 2.546875 -4.484375 2.316406 -4.4375 2.109375 -4.34375 C 1.898438 -4.25 1.722656 -4.113281 1.578125 -3.9375 C 1.441406 -3.769531 1.335938 -3.5625 1.265625 -3.3125 C 1.191406 -3.070312 1.15625 -2.800781 1.15625 -2.5 Z M 1.15625 -2.5 "/></g></g></g><g fill="#11222c" fill-opacity="1"><g transform="translate(63.59715, 39.260527)"><g><path d="M 3.171875 -1.859375 C 3.171875 -2.296875 3.0625 -2.628906 2.84375 -2.859375 C 2.625 -3.097656 2.335938 -3.21875 1.984375 -3.21875 C 1.785156 -3.21875 1.628906 -3.207031 1.515625 -3.1875 C 1.398438 -3.175781 1.3125 -3.160156 1.25 -3.140625 L 1.25 -0.796875 C 1.320312 -0.722656 1.4375 -0.65625 1.59375 -0.59375 C 1.75 -0.53125 1.914062 -0.5 2.09375 -0.5 C 2.289062 -0.5 2.457031 -0.535156 2.59375 -0.609375 C 2.726562 -0.679688 2.835938 -0.773438 2.921875 -0.890625 C 3.015625 -1.015625 3.078125 -1.160156 3.109375 -1.328125 C 3.148438 -1.492188 3.171875 -1.671875 3.171875 -1.859375 Z M 3.859375 -1.859375 C 3.859375 -1.578125 3.820312 -1.316406 3.75 -1.078125 C 3.675781 -0.835938 3.566406 -0.628906 3.421875 -0.453125 C 3.285156 -0.285156 3.113281 -0.148438 2.90625 -0.046875 C 2.695312 0.046875 2.457031 0.09375 2.1875 0.09375 C 1.96875 0.09375 1.773438 0.0625 1.609375 0 C 1.441406 -0.0625 1.320312 -0.117188 1.25 -0.171875 L 1.25 1.328125 L 0.578125 1.328125 L 0.578125 -3.625 C 0.734375 -3.664062 0.929688 -3.707031 1.171875 -3.75 C 1.410156 -3.789062 1.679688 -3.8125 1.984375 -3.8125 C 2.273438 -3.8125 2.535156 -3.765625 2.765625 -3.671875 C 2.992188 -3.585938 3.1875 -3.460938 3.34375 -3.296875 C 3.507812 -3.128906 3.632812 -2.921875 3.71875 -2.671875 C 3.8125 -2.429688 3.859375 -2.160156 3.859375 -1.859375 Z M 3.859375 -1.859375 "/></g></g></g><g fill="#11222c" fill-opacity="1"><g transform="translate(69.326704, 39.260527)"><g><path d="M 1.203125 -3.734375 L 2.609375 -3.734375 L 2.609375 -3.171875 L 1.203125 -3.171875 L 1.203125 -1.453125 C 1.203125 -1.265625 1.210938 -1.109375 1.234375 -0.984375 C 1.265625 -0.867188 1.304688 -0.773438 1.359375 -0.703125 C 1.421875 -0.628906 1.492188 -0.578125 1.578125 -0.546875 C 1.671875 -0.523438 1.773438 -0.515625 1.890625 -0.515625 C 2.085938 -0.515625 2.25 -0.535156 2.375 -0.578125 C 2.5 -0.617188 2.582031 -0.648438 2.625 -0.671875 L 2.765625 -0.125 C 2.691406 -0.09375 2.570312 -0.0507812 2.40625 0 C 2.238281 0.0507812 2.046875 0.078125 1.828125 0.078125 C 1.578125 0.078125 1.367188 0.046875 1.203125 -0.015625 C 1.035156 -0.078125 0.898438 -0.171875 0.796875 -0.296875 C 0.703125 -0.429688 0.632812 -0.59375 0.59375 -0.78125 C 0.550781 -0.976562 0.53125 -1.195312 0.53125 -1.4375 L 0.53125 -4.78125 L 1.203125 -4.890625 Z M 1.203125 -3.734375 "/></g></g></g><g fill="#11222c" fill-opacity="1"><g transform="translate(73.71193, 39.260527)"><g><path d="M 1.25 0 L 0.578125 0 L 0.578125 -3.734375 L 1.25 -3.734375 Z M 0.90625 -4.40625 C 0.78125 -4.40625 0.675781 -4.445312 0.59375 -4.53125 C 0.507812 -4.613281 0.46875 -4.722656 0.46875 -4.859375 C 0.46875 -4.984375 0.507812 -5.085938 0.59375 -5.171875 C 0.675781 -5.253906 0.78125 -5.296875 0.90625 -5.296875 C 1.019531 -5.296875 1.117188 -5.253906 1.203125 -5.171875 C 1.296875 -5.085938 1.34375 -4.984375 1.34375 -4.859375 C 1.34375 -4.722656 1.296875 -4.613281 1.203125 -4.53125 C 1.117188 -4.445312 1.019531 -4.40625 0.90625 -4.40625 Z M 0.90625 -4.40625 "/></g></g></g><g fill="#11222c" fill-opacity="1"><g transform="translate(77.02601, 39.260527)"><g><path d="M 0.578125 -3.625 C 0.734375 -3.664062 0.9375 -3.707031 1.1875 -3.75 C 1.4375 -3.789062 1.726562 -3.8125 2.0625 -3.8125 C 2.300781 -3.8125 2.5 -3.78125 2.65625 -3.71875 C 2.820312 -3.65625 2.957031 -3.5625 3.0625 -3.4375 C 3.101562 -3.457031 3.15625 -3.488281 3.21875 -3.53125 C 3.289062 -3.570312 3.378906 -3.613281 3.484375 -3.65625 C 3.597656 -3.695312 3.71875 -3.734375 3.84375 -3.765625 C 3.976562 -3.796875 4.117188 -3.8125 4.265625 -3.8125 C 4.546875 -3.8125 4.773438 -3.769531 4.953125 -3.6875 C 5.140625 -3.601562 5.285156 -3.484375 5.390625 -3.328125 C 5.492188 -3.179688 5.5625 -3 5.59375 -2.78125 C 5.632812 -2.570312 5.65625 -2.34375 5.65625 -2.09375 L 5.65625 0 L 4.984375 0 L 4.984375 -1.953125 C 4.984375 -2.171875 4.972656 -2.359375 4.953125 -2.515625 C 4.929688 -2.679688 4.890625 -2.816406 4.828125 -2.921875 C 4.773438 -3.023438 4.695312 -3.101562 4.59375 -3.15625 C 4.488281 -3.207031 4.351562 -3.234375 4.1875 -3.234375 C 3.96875 -3.234375 3.785156 -3.203125 3.640625 -3.140625 C 3.492188 -3.078125 3.390625 -3.019531 3.328125 -2.96875 C 3.367188 -2.84375 3.398438 -2.707031 3.421875 -2.5625 C 3.441406 -2.414062 3.453125 -2.257812 3.453125 -2.09375 L 3.453125 0 L 2.78125 0 L 2.78125 -1.953125 C 2.78125 -2.171875 2.765625 -2.359375 2.734375 -2.515625 C 2.710938 -2.679688 2.671875 -2.816406 2.609375 -2.921875 C 2.554688 -3.023438 2.476562 -3.101562 2.375 -3.15625 C 2.269531 -3.207031 2.140625 -3.234375 1.984375 -3.234375 C 1.921875 -3.234375 1.847656 -3.226562 1.765625 -3.21875 C 1.691406 -3.21875 1.617188 -3.210938 1.546875 -3.203125 C 1.472656 -3.191406 1.40625 -3.179688 1.34375 -3.171875 C 1.289062 -3.160156 1.257812 -3.15625 1.25 -3.15625 L 1.25 0 L 0.578125 0 Z M 0.578125 -3.625 "/></g></g></g><g fill="#11222c" fill-opacity="1"><g transform="translate(84.710948, 39.260527)"><g><path d="M 1.25 0 L 0.578125 0 L 0.578125 -3.734375 L 1.25 -3.734375 Z M 0.90625 -4.40625 C 0.78125 -4.40625 0.675781 -4.445312 0.59375 -4.53125 C 0.507812 -4.613281 0.46875 -4.722656 0.46875 -4.859375 C 0.46875 -4.984375 0.507812 -5.085938 0.59375 -5.171875 C 0.675781 -5.253906 0.78125 -5.296875 0.90625 -5.296875 C 1.019531 -5.296875 1.117188 -5.253906 1.203125 -5.171875 C 1.296875 -5.085938 1.34375 -4.984375 1.34375 -4.859375 C 1.34375 -4.722656 1.296875 -4.613281 1.203125 -4.53125 C 1.117188 -4.445312 1.019531 -4.40625 0.90625 -4.40625 Z M 0.90625 -4.40625 "/></g></g></g><g fill="#11222c" fill-opacity="1"><g transform="translate(88.025029, 39.260527)"><g><path d="M 3.0625 -3.234375 C 2.957031 -3.117188 2.820312 -2.960938 2.65625 -2.765625 C 2.488281 -2.566406 2.3125 -2.34375 2.125 -2.09375 C 1.9375 -1.851562 1.742188 -1.597656 1.546875 -1.328125 C 1.359375 -1.054688 1.195312 -0.800781 1.0625 -0.5625 L 3.109375 -0.5625 L 3.109375 0 L 0.265625 0 L 0.265625 -0.453125 C 0.378906 -0.660156 0.519531 -0.890625 0.6875 -1.140625 C 0.851562 -1.398438 1.023438 -1.65625 1.203125 -1.90625 C 1.390625 -2.15625 1.570312 -2.390625 1.75 -2.609375 C 1.925781 -2.835938 2.078125 -3.023438 2.203125 -3.171875 L 0.359375 -3.171875 L 0.359375 -3.734375 L 3.0625 -3.734375 Z M 3.0625 -3.234375 "/></g></g></g><g fill="#11222c" fill-opacity="1"><g transform="translate(92.906289, 39.260527)"><g><path d="M 0.359375 -1.859375 C 0.359375 -2.191406 0.40625 -2.476562 0.5 -2.71875 C 0.601562 -2.96875 0.734375 -3.175781 0.890625 -3.34375 C 1.046875 -3.507812 1.226562 -3.628906 1.4375 -3.703125 C 1.644531 -3.785156 1.851562 -3.828125 2.0625 -3.828125 C 2.570312 -3.828125 2.957031 -3.671875 3.21875 -3.359375 C 3.488281 -3.046875 3.625 -2.566406 3.625 -1.921875 C 3.625 -1.898438 3.625 -1.863281 3.625 -1.8125 C 3.625 -1.769531 3.625 -1.726562 3.625 -1.6875 L 1.0625 -1.6875 C 1.09375 -1.300781 1.207031 -1.003906 1.40625 -0.796875 C 1.601562 -0.597656 1.910156 -0.5 2.328125 -0.5 C 2.554688 -0.5 2.75 -0.519531 2.90625 -0.5625 C 3.070312 -0.601562 3.195312 -0.644531 3.28125 -0.6875 L 3.375 -0.125 C 3.289062 -0.0820312 3.144531 -0.0351562 2.9375 0.015625 C 2.738281 0.0664062 2.507812 0.09375 2.25 0.09375 C 1.925781 0.09375 1.644531 0.046875 1.40625 -0.046875 C 1.164062 -0.148438 0.96875 -0.285156 0.8125 -0.453125 C 0.664062 -0.628906 0.550781 -0.835938 0.46875 -1.078125 C 0.394531 -1.316406 0.359375 -1.578125 0.359375 -1.859375 Z M 2.9375 -2.234375 C 2.9375 -2.535156 2.859375 -2.78125 2.703125 -2.96875 C 2.546875 -3.164062 2.332031 -3.265625 2.0625 -3.265625 C 1.90625 -3.265625 1.769531 -3.234375 1.65625 -3.171875 C 1.539062 -3.109375 1.441406 -3.03125 1.359375 -2.9375 C 1.273438 -2.84375 1.207031 -2.734375 1.15625 -2.609375 C 1.113281 -2.484375 1.085938 -2.359375 1.078125 -2.234375 Z M 2.9375 -2.234375 "/></g></g></g><g fill="#000000" fill-opacity="1"><g transform="translate(98.425194, 39.260527)"><g/></g></g><g fill="#ff5e14" fill-opacity="1"><g transform="translate(101.589041, 39.260527)"><g><path d="M 0.6875 -5.625 L 1.3125 -5.625 L 1.3125 1.328125 L 0.6875 1.328125 Z M 0.6875 -5.625 "/></g></g></g><g fill="#000000" fill-opacity="1"><g transform="translate(105.099224, 39.260527)"><g/></g></g><g fill="#11222c" fill-opacity="1"><g transform="translate(108.26307, 39.260527)"><g><path d="M 0.625 -4.984375 L 1.3125 -4.984375 L 1.3125 0 L 0.625 0 Z M 0.625 -4.984375 "/></g></g></g><g fill="#11222c" fill-opacity="1"><g transform="translate(111.692173, 39.260527)"><g><path d="M 0.578125 -3.625 C 0.734375 -3.664062 0.9375 -3.707031 1.1875 -3.75 C 1.4375 -3.789062 1.726562 -3.8125 2.0625 -3.8125 C 2.363281 -3.8125 2.609375 -3.769531 2.796875 -3.6875 C 2.992188 -3.601562 3.148438 -3.484375 3.265625 -3.328125 C 3.390625 -3.179688 3.472656 -3.003906 3.515625 -2.796875 C 3.566406 -2.585938 3.59375 -2.351562 3.59375 -2.09375 L 3.59375 0 L 2.921875 0 L 2.921875 -1.953125 C 2.921875 -2.179688 2.90625 -2.375 2.875 -2.53125 C 2.84375 -2.695312 2.789062 -2.832031 2.71875 -2.9375 C 2.644531 -3.039062 2.546875 -3.113281 2.421875 -3.15625 C 2.304688 -3.207031 2.160156 -3.234375 1.984375 -3.234375 C 1.921875 -3.234375 1.847656 -3.226562 1.765625 -3.21875 C 1.691406 -3.21875 1.617188 -3.210938 1.546875 -3.203125 C 1.472656 -3.191406 1.410156 -3.179688 1.359375 -3.171875 C 1.304688 -3.160156 1.269531 -3.15625 1.25 -3.15625 L 1.25 0 L 0.578125 0 Z M 0.578125 -3.625 "/></g></g></g><g fill="#11222c" fill-opacity="1"><g transform="translate(117.313889, 39.260527)"><g><path d="M 0.578125 -3.625 C 0.734375 -3.664062 0.9375 -3.707031 1.1875 -3.75 C 1.4375 -3.789062 1.726562 -3.8125 2.0625 -3.8125 C 2.363281 -3.8125 2.609375 -3.769531 2.796875 -3.6875 C 2.992188 -3.601562 3.148438 -3.484375 3.265625 -3.328125 C 3.390625 -3.179688 3.472656 -3.003906 3.515625 -2.796875 C 3.566406 -2.585938 3.59375 -2.351562 3.59375 -2.09375 L 3.59375 0 L 2.921875 0 L 2.921875 -1.953125 C 2.921875 -2.179688 2.90625 -2.375 2.875 -2.53125 C 2.84375 -2.695312 2.789062 -2.832031 2.71875 -2.9375 C 2.644531 -3.039062 2.546875 -3.113281 2.421875 -3.15625 C 2.304688 -3.207031 2.160156 -3.234375 1.984375 -3.234375 C 1.921875 -3.234375 1.847656 -3.226562 1.765625 -3.21875 C 1.691406 -3.21875 1.617188 -3.210938 1.546875 -3.203125 C 1.472656 -3.191406 1.410156 -3.179688 1.359375 -3.171875 C 1.304688 -3.160156 1.269531 -3.15625 1.25 -3.15625 L 1.25 0 L 0.578125 0 Z M 0.578125 -3.625 "/></g></g></g><g fill="#11222c" fill-opacity="1"><g transform="translate(122.935605, 39.260527)"><g><path d="M 3.875 -1.875 C 3.875 -1.570312 3.828125 -1.300781 3.734375 -1.0625 C 3.648438 -0.820312 3.53125 -0.613281 3.375 -0.4375 C 3.21875 -0.269531 3.03125 -0.140625 2.8125 -0.046875 C 2.601562 0.046875 2.375 0.09375 2.125 0.09375 C 1.863281 0.09375 1.625 0.046875 1.40625 -0.046875 C 1.195312 -0.140625 1.015625 -0.269531 0.859375 -0.4375 C 0.703125 -0.613281 0.578125 -0.820312 0.484375 -1.0625 C 0.398438 -1.300781 0.359375 -1.570312 0.359375 -1.875 C 0.359375 -2.164062 0.398438 -2.429688 0.484375 -2.671875 C 0.578125 -2.910156 0.703125 -3.113281 0.859375 -3.28125 C 1.015625 -3.457031 1.195312 -3.59375 1.40625 -3.6875 C 1.625 -3.78125 1.863281 -3.828125 2.125 -3.828125 C 2.375 -3.828125 2.601562 -3.78125 2.8125 -3.6875 C 3.03125 -3.59375 3.21875 -3.457031 3.375 -3.28125 C 3.53125 -3.113281 3.648438 -2.910156 3.734375 -2.671875 C 3.828125 -2.429688 3.875 -2.164062 3.875 -1.875 Z M 3.171875 -1.875 C 3.171875 -2.289062 3.078125 -2.617188 2.890625 -2.859375 C 2.703125 -3.109375 2.445312 -3.234375 2.125 -3.234375 C 1.789062 -3.234375 1.53125 -3.109375 1.34375 -2.859375 C 1.15625 -2.617188 1.0625 -2.289062 1.0625 -1.875 C 1.0625 -1.445312 1.15625 -1.109375 1.34375 -0.859375 C 1.53125 -0.617188 1.789062 -0.5 2.125 -0.5 C 2.445312 -0.5 2.703125 -0.617188 2.890625 -0.859375 C 3.078125 -1.109375 3.171875 -1.445312 3.171875 -1.875 Z M 3.171875 -1.875 "/></g></g></g><g fill="#11222c" fill-opacity="1"><g transform="translate(128.672343, 39.260527)"><g><path d="M 3.5 -3.734375 C 3.3125 -3.035156 3.085938 -2.363281 2.828125 -1.71875 C 2.578125 -1.082031 2.335938 -0.507812 2.109375 0 L 1.5 0 C 1.269531 -0.507812 1.023438 -1.082031 0.765625 -1.71875 C 0.515625 -2.363281 0.296875 -3.035156 0.109375 -3.734375 L 0.828125 -3.734375 C 0.890625 -3.503906 0.957031 -3.253906 1.03125 -2.984375 C 1.113281 -2.722656 1.195312 -2.457031 1.28125 -2.1875 C 1.375 -1.925781 1.46875 -1.675781 1.5625 -1.4375 C 1.65625 -1.195312 1.738281 -0.976562 1.8125 -0.78125 C 1.894531 -0.976562 1.984375 -1.195312 2.078125 -1.4375 C 2.171875 -1.675781 2.257812 -1.925781 2.34375 -2.1875 C 2.4375 -2.457031 2.519531 -2.722656 2.59375 -2.984375 C 2.675781 -3.253906 2.742188 -3.503906 2.796875 -3.734375 Z M 3.5 -3.734375 "/></g></g></g><g fill="#11222c" fill-opacity="1"><g transform="translate(133.776464, 39.260527)"><g><path d="M 1.84375 -0.484375 C 2 -0.484375 2.132812 -0.484375 2.25 -0.484375 C 2.375 -0.492188 2.476562 -0.507812 2.5625 -0.53125 L 2.5625 -1.640625 C 2.519531 -1.671875 2.441406 -1.691406 2.328125 -1.703125 C 2.222656 -1.722656 2.09375 -1.734375 1.9375 -1.734375 C 1.84375 -1.734375 1.738281 -1.722656 1.625 -1.703125 C 1.507812 -1.691406 1.40625 -1.660156 1.3125 -1.609375 C 1.21875 -1.566406 1.140625 -1.503906 1.078125 -1.421875 C 1.015625 -1.347656 0.984375 -1.25 0.984375 -1.125 C 0.984375 -0.882812 1.054688 -0.71875 1.203125 -0.625 C 1.359375 -0.53125 1.570312 -0.484375 1.84375 -0.484375 Z M 1.78125 -3.828125 C 2.050781 -3.828125 2.273438 -3.789062 2.453125 -3.71875 C 2.640625 -3.65625 2.789062 -3.554688 2.90625 -3.421875 C 3.019531 -3.296875 3.097656 -3.144531 3.140625 -2.96875 C 3.191406 -2.800781 3.21875 -2.613281 3.21875 -2.40625 L 3.21875 -0.0625 C 3.164062 -0.0507812 3.085938 -0.0351562 2.984375 -0.015625 C 2.878906 -0.00390625 2.757812 0.00390625 2.625 0.015625 C 2.5 0.0351562 2.359375 0.0507812 2.203125 0.0625 C 2.054688 0.0703125 1.910156 0.078125 1.765625 0.078125 C 1.546875 0.078125 1.347656 0.0546875 1.171875 0.015625 C 0.992188 -0.0234375 0.84375 -0.09375 0.71875 -0.1875 C 0.59375 -0.28125 0.492188 -0.40625 0.421875 -0.5625 C 0.347656 -0.71875 0.3125 -0.898438 0.3125 -1.109375 C 0.3125 -1.316406 0.351562 -1.492188 0.4375 -1.640625 C 0.519531 -1.796875 0.628906 -1.914062 0.765625 -2 C 0.910156 -2.09375 1.078125 -2.160156 1.265625 -2.203125 C 1.460938 -2.242188 1.671875 -2.265625 1.890625 -2.265625 C 1.953125 -2.265625 2.019531 -2.257812 2.09375 -2.25 C 2.164062 -2.25 2.234375 -2.242188 2.296875 -2.234375 C 2.359375 -2.222656 2.410156 -2.210938 2.453125 -2.203125 C 2.503906 -2.191406 2.539062 -2.179688 2.5625 -2.171875 L 2.5625 -2.359375 C 2.5625 -2.472656 2.550781 -2.582031 2.53125 -2.6875 C 2.507812 -2.800781 2.46875 -2.898438 2.40625 -2.984375 C 2.34375 -3.066406 2.253906 -3.128906 2.140625 -3.171875 C 2.035156 -3.222656 1.894531 -3.25 1.71875 -3.25 C 1.5 -3.25 1.304688 -3.234375 1.140625 -3.203125 C 0.984375 -3.171875 0.863281 -3.140625 0.78125 -3.109375 L 0.703125 -3.671875 C 0.785156 -3.703125 0.925781 -3.734375 1.125 -3.765625 C 1.332031 -3.804688 1.550781 -3.828125 1.78125 -3.828125 Z M 1.78125 -3.828125 "/></g></g></g><g fill="#11222c" fill-opacity="1"><g transform="translate(139.024355, 39.260527)"><g><path d="M 1.203125 -3.734375 L 2.609375 -3.734375 L 2.609375 -3.171875 L 1.203125 -3.171875 L 1.203125 -1.453125 C 1.203125 -1.265625 1.210938 -1.109375 1.234375 -0.984375 C 1.265625 -0.867188 1.304688 -0.773438 1.359375 -0.703125 C 1.421875 -0.628906 1.492188 -0.578125 1.578125 -0.546875 C 1.671875 -0.523438 1.773438 -0.515625 1.890625 -0.515625 C 2.085938 -0.515625 2.25 -0.535156 2.375 -0.578125 C 2.5 -0.617188 2.582031 -0.648438 2.625 -0.671875 L 2.765625 -0.125 C 2.691406 -0.09375 2.570312 -0.0507812 2.40625 0 C 2.238281 0.0507812 2.046875 0.078125 1.828125 0.078125 C 1.578125 0.078125 1.367188 0.046875 1.203125 -0.015625 C 1.035156 -0.078125 0.898438 -0.171875 0.796875 -0.296875 C 0.703125 -0.429688 0.632812 -0.59375 0.59375 -0.78125 C 0.550781 -0.976562 0.53125 -1.195312 0.53125 -1.4375 L 0.53125 -4.78125 L 1.203125 -4.890625 Z M 1.203125 -3.734375 "/></g></g></g><g fill="#11222c" fill-opacity="1"><g transform="translate(143.409582, 39.260527)"><g><path d="M 0.359375 -1.859375 C 0.359375 -2.191406 0.40625 -2.476562 0.5 -2.71875 C 0.601562 -2.96875 0.734375 -3.175781 0.890625 -3.34375 C 1.046875 -3.507812 1.226562 -3.628906 1.4375 -3.703125 C 1.644531 -3.785156 1.851562 -3.828125 2.0625 -3.828125 C 2.570312 -3.828125 2.957031 -3.671875 3.21875 -3.359375 C 3.488281 -3.046875 3.625 -2.566406 3.625 -1.921875 C 3.625 -1.898438 3.625 -1.863281 3.625 -1.8125 C 3.625 -1.769531 3.625 -1.726562 3.625 -1.6875 L 1.0625 -1.6875 C 1.09375 -1.300781 1.207031 -1.003906 1.40625 -0.796875 C 1.601562 -0.597656 1.910156 -0.5 2.328125 -0.5 C 2.554688 -0.5 2.75 -0.519531 2.90625 -0.5625 C 3.070312 -0.601562 3.195312 -0.644531 3.28125 -0.6875 L 3.375 -0.125 C 3.289062 -0.0820312 3.144531 -0.0351562 2.9375 0.015625 C 2.738281 0.0664062 2.507812 0.09375 2.25 0.09375 C 1.925781 0.09375 1.644531 0.046875 1.40625 -0.046875 C 1.164062 -0.148438 0.96875 -0.285156 0.8125 -0.453125 C 0.664062 -0.628906 0.550781 -0.835938 0.46875 -1.078125 C 0.394531 -1.316406 0.359375 -1.578125 0.359375 -1.859375 Z M 2.9375 -2.234375 C 2.9375 -2.535156 2.859375 -2.78125 2.703125 -2.96875 C 2.546875 -3.164062 2.332031 -3.265625 2.0625 -3.265625 C 1.90625 -3.265625 1.769531 -3.234375 1.65625 -3.171875 C 1.539062 -3.109375 1.441406 -3.03125 1.359375 -2.9375 C 1.273438 -2.84375 1.207031 -2.734375 1.15625 -2.609375 C 1.113281 -2.484375 1.085938 -2.359375 1.078125 -2.234375 Z M 2.9375 -2.234375 "/></g></g></g></svg>